<svg xmlns="http://www.w3.org/2000/svg" viewBox="0 0 940 600" font-family="system-ui,-apple-system,'Segoe UI',Roboto,sans-serif">
  <defs><style>.serif{font-family:Georgia,'Times New Roman',serif}.mono{font-family:ui-monospace,SFMono-Regular,Menlo,monospace}</style></defs>
  <rect width="940" height="600" fill="#FBF8F2"/>
  <text x="60" y="56" class="mono" font-size="13" letter-spacing="3" fill="#c65d3a">CAI SCORE</text>
  <text x="60" y="94" class="serif" font-size="23" fill="#22211F">CAI Score je certifikační rámec pro AI agenty: pětistupňová klasifikace…</text>
  <line x1="46" y1="172" x2="46" y2="540" stroke="#d8d2c6" stroke-width="1.5"/>
  <polygon points="46,166 41,178 51,178" fill="#c65d3a"/>
  <rect x="70" y="168" width="810" height="68" rx="10" fill="#c65d3a"/>
  <text x="150" y="199" class="serif" font-size="19" fill="#fff">L5 · Autonomní</text>
  <text x="150" y="221" font-size="13" fill="#f3ded4">Jedná nezávisle v pevných, předem schválených mantinelech. Vyhrazeno pro nejvyšší úroveň…</text>
  <rect x="70" y="244" width="810" height="68" rx="10" fill="#d07e57"/>
  <text x="150" y="275" class="serif" font-size="19" fill="#fff">L4 · Rozhoduje (pod dohledem)</text>
  <text x="150" y="297" font-size="13" fill="#fbeee6">Podporuje rozhodnutí a kontroly v procesech s vyšším rizikem, compliance, smlouvy, bezpečnost,…</text>
  <rect x="70" y="320" width="810" height="68" rx="10" fill="#e3b79c"/>
  <text x="150" y="351" class="serif" font-size="19" fill="#22211F">L3 · Operuje</text>
  <text x="150" y="373" font-size="13" fill="#5c4a3f">Provádí rutinní akce s nízkým rizikem v ohraničeném workflow, klasifikovat, směrovat, vyřídit,…</text>
  <rect x="70" y="396" width="810" height="68" rx="10" fill="#ecd9c9"/>
  <text x="150" y="427" class="serif" font-size="19" fill="#22211F">L2 · Navrhuje</text>
  <text x="150" y="449" font-size="13" fill="#68635b">Vytváří pracovní výstup (dokument, dotaz, zprávu, oslovovací zprávu) k revizi a schválení…</text>
  <rect x="70" y="472" width="810" height="68" rx="10" fill="#f0e9dd"/>
  <text x="150" y="503" class="serif" font-size="19" fill="#22211F">L1 · Asistuje</text>
  <text x="150" y="525" font-size="13" fill="#68635b">Informuje a odpovídá. Neprovádí žádnou akci a nemění žádný záznam. Práci dělá člověk; agent ji…</text>
</svg>
