<svg xmlns="http://www.w3.org/2000/svg" viewBox="0 0 940 600" font-family="system-ui,-apple-system,'Segoe UI',Roboto,sans-serif">
  <defs><style>.serif{font-family:Georgia,'Times New Roman',serif}.mono{font-family:ui-monospace,SFMono-Regular,Menlo,monospace}</style></defs>
  <rect width="940" height="600" fill="#FBF8F2"/>
  <text x="60" y="56" class="mono" font-size="13" letter-spacing="3" fill="#c65d3a">CAI SCORE</text>
  <text x="60" y="94" class="serif" font-size="23" fill="#22211F">El CAI Score es un marco de certificación para agentes de IA: una…</text>
  <line x1="46" y1="172" x2="46" y2="540" stroke="#d8d2c6" stroke-width="1.5"/>
  <polygon points="46,166 41,178 51,178" fill="#c65d3a"/>
  <rect x="70" y="168" width="810" height="68" rx="10" fill="#c65d3a"/>
  <text x="150" y="199" class="serif" font-size="19" fill="#fff">L5 · Autónomo</text>
  <text x="150" y="221" font-size="13" fill="#f3ded4">Actúa de forma independiente dentro de barreras firmes y preaprobadas. Reservado para el nivel…</text>
  <rect x="70" y="244" width="810" height="68" rx="10" fill="#d07e57"/>
  <text x="150" y="275" class="serif" font-size="19" fill="#fff">L4 · Decide (supervisado)</text>
  <text x="150" y="297" font-size="13" fill="#fbeee6">Apoya decisiones y controles en procesos de mayor riesgo, cumplimiento, contratos, seguridad,…</text>
  <rect x="70" y="320" width="810" height="68" rx="10" fill="#e3b79c"/>
  <text x="150" y="351" class="serif" font-size="19" fill="#22211F">L3 · Opera</text>
  <text x="150" y="373" font-size="13" fill="#5c4a3f">Ejecuta acciones rutinarias de bajo riesgo dentro de un flujo delimitado, clasificar, enrutar,…</text>
  <rect x="70" y="396" width="810" height="68" rx="10" fill="#ecd9c9"/>
  <text x="150" y="427" class="serif" font-size="19" fill="#22211F">L2 · Redacta</text>
  <text x="150" y="449" font-size="13" fill="#68635b">Produce un entregable (un documento, una consulta, un informe, un mensaje de prospección) para…</text>
  <rect x="70" y="472" width="810" height="68" rx="10" fill="#f0e9dd"/>
  <text x="150" y="503" class="serif" font-size="19" fill="#22211F">L1 · Asiste</text>
  <text x="150" y="525" font-size="13" fill="#68635b">Informa y responde. No realiza ninguna acción ni modifica ningún registro. El humano hace el…</text>
</svg>
